<svg xmlns="http://www.w3.org/2000/svg" width="215.19" height="35" viewBox="0 0 215.19 35"><rect class="svg__rect" x="0" y="0" width="78.19" height="35" fill="#A7BFC1"/><rect class="svg__rect" x="76.19" y="0" width="139" height="35" fill="#E6AF47"/><path class="svg__text" d="M15.70 22L14.22 22L14.22 13.47L15.70 13.47L15.70 17.02L19.51 17.02L19.51 13.47L20.99 13.47L20.99 22L19.51 22L19.51 18.21L15.70 18.21L15.70 22ZM26.51 22L24.97 22L28.19 13.47L29.52 13.47L32.75 22L31.20 22L30.51 20.01L27.20 20.01L26.51 22ZM28.85 15.28L27.62 18.82L30.09 18.82L28.85 15.28ZM38.19 22L36.71 22L36.71 13.47L39.97 13.47Q41.40 13.47 42.24 14.21Q43.08 14.96 43.08 16.18L43.08 16.18Q43.08 17.44 42.26 18.13Q41.43 18.83 39.95 18.83L39.95 18.83L38.19 18.83L38.19 22ZM38.19 14.66L38.19 17.64L39.97 17.64Q40.76 17.64 41.18 17.27Q41.59 16.90 41.59 16.19L41.59 16.19Q41.59 15.50 41.17 15.09Q40.75 14.68 40.01 14.66L40.01 14.66L38.19 14.66ZM48.85 22L47.36 22L47.36 13.47L50.63 13.47Q52.06 13.47 52.90 14.21Q53.74 14.96 53.74 16.18L53.74 16.18Q53.74 17.44 52.92 18.13Q52.09 18.83 50.61 18.83L50.61 18.83L48.85 18.83L48.85 22ZM48.85 14.66L48.85 17.64L50.63 17.64Q51.42 17.64 51.83 17.27Q52.25 16.90 52.25 16.19L52.25 16.19Q52.25 15.50 51.83 15.09Q51.41 14.68 50.67 14.66L50.67 14.66L48.85 14.66ZM60.06 18.86L57.20 13.47L58.84 13.47L60.81 17.51L62.77 13.47L64.41 13.47L61.55 18.86L61.55 22L60.06 22L60.06 18.86Z" fill="#000000"/><path class="svg__text" d="M96.76 22L90.38 22L90.38 13.60L92.76 13.60L92.76 20.11L96.76 20.11L96.76 22ZM107.93 22L101.18 22L101.18 13.60L107.77 13.60L107.77 15.44L103.54 15.44L103.54 16.85L107.27 16.85L107.27 18.63L103.54 18.63L103.54 20.17L107.93 20.17L107.93 22ZM119.48 22L112.73 22L112.73 13.60L119.32 13.60L119.32 15.44L115.09 15.44L115.09 16.85L118.82 16.85L118.82 18.63L115.09 18.63L115.09 20.17L119.48 20.17L119.48 22ZM126.07 15.48L123.49 15.48L123.49 13.60L131.01 13.60L131.01 15.48L128.45 15.48L128.45 22L126.07 22L126.07 15.48ZM134.96 17.80L134.96 17.80Q134.96 16.54 135.55 15.54Q136.15 14.55 137.20 13.99Q138.25 13.43 139.57 13.43L139.57 13.43Q140.73 13.43 141.65 13.84Q142.57 14.25 143.19 15.02L143.19 15.02L141.68 16.39Q140.86 15.40 139.70 15.40L139.70 15.40Q139.01 15.40 138.48 15.70Q137.94 16 137.65 16.54Q137.35 17.09 137.35 17.80L137.35 17.80Q137.35 18.51 137.65 19.05Q137.94 19.60 138.48 19.90Q139.01 20.20 139.70 20.20L139.70 20.20Q140.86 20.20 141.68 19.22L141.68 19.22L143.19 20.58Q142.58 21.35 141.65 21.76Q140.73 22.17 139.57 22.17L139.57 22.17Q138.25 22.17 137.20 21.61Q136.15 21.05 135.55 20.05Q134.96 19.06 134.96 17.80ZM147.30 17.80L147.30 17.80Q147.30 16.55 147.90 15.55Q148.50 14.56 149.57 14.00Q150.63 13.43 151.96 13.43L151.96 13.43Q153.29 13.43 154.35 14.00Q155.42 14.56 156.02 15.55Q156.63 16.55 156.63 17.80L156.63 17.80Q156.63 19.05 156.02 20.04Q155.42 21.04 154.36 21.60Q153.30 22.17 151.96 22.17L151.96 22.17Q150.63 22.17 149.57 21.60Q148.50 21.04 147.90 20.04Q147.30 19.05 147.30 17.80ZM149.69 17.80L149.69 17.80Q149.69 18.51 149.99 19.05Q150.30 19.60 150.81 19.90Q151.33 20.20 151.96 20.20L151.96 20.20Q152.60 20.20 153.11 19.90Q153.63 19.60 153.93 19.05Q154.23 18.51 154.23 17.80L154.23 17.80Q154.23 17.09 153.93 16.54Q153.63 16 153.11 15.70Q152.60 15.40 151.96 15.40L151.96 15.40Q151.32 15.40 150.81 15.70Q150.30 16 149.99 16.54Q149.69 17.09 149.69 17.80ZM165.33 22L161.36 22L161.36 13.60L165.33 13.60Q166.71 13.60 167.78 14.12Q168.85 14.63 169.44 15.58Q170.02 16.53 170.02 17.80L170.02 17.80Q170.02 19.07 169.44 20.02Q168.85 20.97 167.78 21.48Q166.71 22 165.33 22L165.33 22ZM163.74 15.50L163.74 20.10L165.24 20.10Q166.32 20.10 166.97 19.49Q167.62 18.88 167.62 17.80L167.62 17.80Q167.62 16.72 166.97 16.11Q166.32 15.50 165.24 15.50L165.24 15.50L163.74 15.50ZM177.13 22L174.75 22L174.75 13.60L177.13 13.60L177.13 22ZM184.64 22L182.31 22L182.31 13.60L184.26 13.60L187.97 18.07L187.97 13.60L190.30 13.60L190.30 22L188.35 22L184.64 17.52L184.64 22ZM195.03 17.80L195.03 17.80Q195.03 16.54 195.63 15.54Q196.23 14.55 197.30 13.99Q198.37 13.43 199.71 13.43L199.71 13.43Q200.89 13.43 201.82 13.83Q202.76 14.22 203.38 14.97L203.38 14.97L201.87 16.33Q201.03 15.40 199.85 15.40L199.85 15.40Q199.84 15.40 199.83 15.40L199.83 15.40Q198.75 15.40 198.09 16.06Q197.43 16.71 197.43 17.80L197.43 17.80Q197.43 18.50 197.73 19.04Q198.03 19.59 198.57 19.89Q199.11 20.20 199.81 20.20L199.81 20.20Q200.49 20.20 201.09 19.93L201.09 19.93L201.09 17.62L203.19 17.62L203.19 21.10Q202.47 21.61 201.53 21.89Q200.60 22.17 199.66 22.17L199.66 22.17Q198.34 22.17 197.29 21.61Q196.23 21.05 195.63 20.05Q195.03 19.06 195.03 17.80Z" fill="#FFFFFF" x="89.19"/></svg>